<mxfile host="app.diagrams.net" modified="2023-06-09T12:07:28.848Z" agent="Mozilla/5.0 (Windows NT 10.0; Win64; x64; rv:109.0) Gecko/20100101 Firefox/113.0" etag="uuWHIQFeve-eChcvX5OS" version="21.3.7" type="github">
  <diagram name="Page-1" id="Batjy1DmCmK351vohhD9">
    <mxGraphModel dx="624" dy="317" grid="1" gridSize="10" guides="1" tooltips="1" connect="1" arrows="1" fold="1" page="1" pageScale="1" pageWidth="827" pageHeight="1169" math="0" shadow="0">
      <root>
        <mxCell id="0" />
        <mxCell id="1" parent="0" />
        <mxCell id="UMpw62nomtKjrQFs7QQO-1" value="registre.cpp : Code source" style="rounded=0;whiteSpace=wrap;html=1;" vertex="1" parent="1">
          <mxGeometry x="120" y="50" width="160" height="40" as="geometry" />
        </mxCell>
        <mxCell id="UMpw62nomtKjrQFs7QQO-2" value="personne.dll : Librairie de lien dynamique" style="rounded=0;whiteSpace=wrap;html=1;" vertex="1" parent="1">
          <mxGeometry x="40" y="100" width="240" height="40" as="geometry" />
        </mxCell>
        <mxCell id="UMpw62nomtKjrQFs7QQO-3" value="cours.dll : Librairie de lien dynamique" style="rounded=0;whiteSpace=wrap;html=1;" vertex="1" parent="1">
          <mxGeometry x="40" y="160" width="240" height="40" as="geometry" />
        </mxCell>
        <mxCell id="UMpw62nomtKjrQFs7QQO-4" value="registre.exe : ExÃ©cutable" style="rounded=0;whiteSpace=wrap;html=1;" vertex="1" parent="1">
          <mxGeometry x="400" y="100" width="160" height="40" as="geometry" />
        </mxCell>
        <mxCell id="UMpw62nomtKjrQFs7QQO-5" value="" style="rounded=0;orthogonalLoop=1;jettySize=auto;html=1;endArrow=none;endFill=0;sketch=0;sourcePerimeterSpacing=0;targetPerimeterSpacing=0;exitX=1;exitY=0.5;exitDx=0;exitDy=0;" edge="1" target="UMpw62nomtKjrQFs7QQO-7" parent="1" source="UMpw62nomtKjrQFs7QQO-1">
          <mxGeometry relative="1" as="geometry">
            <mxPoint x="290" y="75" as="sourcePoint" />
          </mxGeometry>
        </mxCell>
        <mxCell id="UMpw62nomtKjrQFs7QQO-6" value="" style="rounded=0;orthogonalLoop=1;jettySize=auto;html=1;endArrow=halfCircle;endFill=0;entryX=0.5;entryY=0.5;endSize=6;strokeWidth=1;sketch=0;exitX=0;exitY=0.5;exitDx=0;exitDy=0;" edge="1" target="UMpw62nomtKjrQFs7QQO-7" parent="1" source="UMpw62nomtKjrQFs7QQO-4">
          <mxGeometry relative="1" as="geometry">
            <mxPoint x="330" y="75" as="sourcePoint" />
          </mxGeometry>
        </mxCell>
        <mxCell id="UMpw62nomtKjrQFs7QQO-7" value="" style="ellipse;whiteSpace=wrap;html=1;align=center;aspect=fixed;resizable=0;points=[];outlineConnect=0;sketch=0;" vertex="1" parent="1">
          <mxGeometry x="305" y="70" width="10" height="10" as="geometry" />
        </mxCell>
        <mxCell id="UMpw62nomtKjrQFs7QQO-9" value="" style="rounded=0;orthogonalLoop=1;jettySize=auto;html=1;endArrow=none;endFill=0;sketch=0;sourcePerimeterSpacing=0;targetPerimeterSpacing=0;exitX=1;exitY=0.5;exitDx=0;exitDy=0;" edge="1" target="UMpw62nomtKjrQFs7QQO-11" parent="1" source="UMpw62nomtKjrQFs7QQO-2">
          <mxGeometry relative="1" as="geometry">
            <mxPoint x="315" y="125" as="sourcePoint" />
          </mxGeometry>
        </mxCell>
        <mxCell id="UMpw62nomtKjrQFs7QQO-10" value="" style="rounded=0;orthogonalLoop=1;jettySize=auto;html=1;endArrow=halfCircle;endFill=0;entryX=0.5;entryY=0.5;endSize=6;strokeWidth=1;sketch=0;exitX=0;exitY=0.75;exitDx=0;exitDy=0;" edge="1" target="UMpw62nomtKjrQFs7QQO-11" parent="1" source="UMpw62nomtKjrQFs7QQO-4">
          <mxGeometry relative="1" as="geometry">
            <mxPoint x="355" y="125" as="sourcePoint" />
          </mxGeometry>
        </mxCell>
        <mxCell id="UMpw62nomtKjrQFs7QQO-11" value="" style="ellipse;whiteSpace=wrap;html=1;align=center;aspect=fixed;resizable=0;points=[];outlineConnect=0;sketch=0;" vertex="1" parent="1">
          <mxGeometry x="330" y="120" width="10" height="10" as="geometry" />
        </mxCell>
        <mxCell id="UMpw62nomtKjrQFs7QQO-12" value="" style="rounded=0;orthogonalLoop=1;jettySize=auto;html=1;endArrow=none;endFill=0;sketch=0;sourcePerimeterSpacing=0;targetPerimeterSpacing=0;exitX=1;exitY=0.5;exitDx=0;exitDy=0;" edge="1" parent="1" source="UMpw62nomtKjrQFs7QQO-3">
          <mxGeometry relative="1" as="geometry">
            <mxPoint x="330" y="255" as="sourcePoint" />
            <mxPoint x="330" y="170" as="targetPoint" />
          </mxGeometry>
        </mxCell>
        <mxCell id="UMpw62nomtKjrQFs7QQO-13" value="" style="rounded=0;orthogonalLoop=1;jettySize=auto;html=1;endArrow=halfCircle;endFill=0;endSize=6;strokeWidth=1;sketch=0;exitX=0;exitY=1;exitDx=0;exitDy=0;" edge="1" parent="1" source="UMpw62nomtKjrQFs7QQO-4">
          <mxGeometry relative="1" as="geometry">
            <mxPoint x="370" y="255" as="sourcePoint" />
            <mxPoint x="330" y="170" as="targetPoint" />
          </mxGeometry>
        </mxCell>
        <mxCell id="UMpw62nomtKjrQFs7QQO-14" value="" style="ellipse;whiteSpace=wrap;html=1;align=center;aspect=fixed;resizable=0;points=[];outlineConnect=0;sketch=0;" vertex="1" parent="1">
          <mxGeometry x="345" y="250" width="10" height="10" as="geometry" />
        </mxCell>
      </root>
    </mxGraphModel>
  </diagram>
</mxfile>
